HIERARCHY
ROOT Hips
{
	OFFSET 0.00000 0.00000 0.00000
	CHANNELS 6 Xposition Yposition Zposition Zrotation Yrotation Xrotation 
	JOINT LHipJoint
	{
		OFFSET 0 0 0
		CHANNELS 3 Zrotation Yrotation Xrotation
		JOINT LeftUpLeg
		{
			OFFSET 1.61024 -1.73873 0.75100
			CHANNELS 3 Zrotation Yrotation Xrotation
			JOINT LeftLeg
			{
				OFFSET 2.29819 -6.31424 0.00000
				CHANNELS 3 Zrotation Yrotation Xrotation
				JOINT LeftFoot
				{
					OFFSET 2.76618 -7.60002 0.00000
					CHANNELS 3 Zrotation Yrotation Xrotation
					JOINT LeftToeBase
					{
						OFFSET 0.16838 -0.46263 2.02361
						CHANNELS 3 Zrotation Yrotation Xrotation
						End Site
						{
							OFFSET 0.00000 -0.00000 1.04662
						}
					}
				}
			}
		}
	}
	JOINT RHipJoint
	{
		OFFSET 0 0 0
		CHANNELS 3 Zrotation Yrotation Xrotation
		JOINT RightUpLeg
		{
			OFFSET -1.46153 -1.73873 0.75100
			CHANNELS 3 Zrotation Yrotation Xrotation
			JOINT RightLeg
			{
				OFFSET -2.38373 -6.54924 0.00000
				CHANNELS 3 Zrotation Yrotation Xrotation
				JOINT RightFoot
				{
					OFFSET -2.80314 -7.70157 0.00000
					CHANNELS 3 Zrotation Yrotation Xrotation
					JOINT RightToeBase
					{
						OFFSET -0.16142 -0.44349 2.02101
						CHANNELS 3 Zrotation Yrotation Xrotation
						End Site
						{
							OFFSET -0.00000 -0.00000 1.04381
						}
					}
				}
			}
		}
	}
	JOINT LowerBack
	{
		OFFSET 0 0 0
		CHANNELS 3 Zrotation Yrotation Xrotation
		JOINT Spine
		{
			OFFSET -0.01629 1.66985 0.14750
			CHANNELS 3 Zrotation Yrotation Xrotation
			JOINT Spine1
			{
				OFFSET 0.02086 1.62378 0.20980
				CHANNELS 3 Zrotation Yrotation Xrotation
				JOINT Neck
				{
					OFFSET 0 0 0
					CHANNELS 3 Zrotation Yrotation Xrotation
					JOINT Neck1
					{
						OFFSET -0.05690 1.78719 0.08702
						CHANNELS 3 Zrotation Yrotation Xrotation
						JOINT Head
						{
							OFFSET 0.16035 1.73871 -0.38470
							CHANNELS 3 Zrotation Yrotation Xrotation
							End Site
							{
								OFFSET 0.05645 1.80914 -0.14081
							}
						}
					}
				}
				JOINT LeftShoulder
				{
					OFFSET 0 0 0
					CHANNELS 3 Zrotation Yrotation Xrotation
					JOINT LeftArm
					{
						OFFSET 2.83089 1.66494 -0.46008
						CHANNELS 3 Zrotation Yrotation Xrotation
						JOINT LeftForeArm
						{
							OFFSET 5.54893 -0.00000 -0.00000
							CHANNELS 3 Zrotation Yrotation Xrotation
							JOINT LeftHand
							{
								OFFSET 3.02898 -0.00000 -0.00000
								CHANNELS 3 Zrotation Yrotation Xrotation
								JOINT LeftFingerBase
								{
									OFFSET 0 0 0
									CHANNELS 3 Zrotation Yrotation Xrotation
									JOINT LeftHandIndex1
									{
										OFFSET 0.64095 -0.00000 -0.00000
										CHANNELS 3 Zrotation Yrotation Xrotation
										End Site
										{
											OFFSET 0.51675 -0.00000 -0.00000
										}
									}
								}
								JOINT LThumb
								{
									OFFSET 0 0 0
									CHANNELS 3 Zrotation Yrotation Xrotation
									End Site
									{
										OFFSET 0.52464 -0.00000 0.52464
									}
								}
							}
						}
					}
				}
				JOINT RightShoulder
				{
					OFFSET 0 0 0
					CHANNELS 3 Zrotation Yrotation Xrotation
					JOINT RightArm
					{
						OFFSET -2.84442 1.45761 -0.18088
						CHANNELS 3 Zrotation Yrotation Xrotation
						JOINT RightForeArm
						{
							OFFSET -5.35190 -0.00000 -0.00000
							CHANNELS 3 Zrotation Yrotation Xrotation
							JOINT RightHand
							{
								OFFSET -3.02531 -0.00000 -0.00000
								CHANNELS 3 Zrotation Yrotation Xrotation
								JOINT RightFingerBase
								{
									OFFSET 0 0 0
									CHANNELS 3 Zrotation Yrotation Xrotation
									JOINT RightHandIndex1
									{
										OFFSET -0.78389 -0.00000 -0.00000
										CHANNELS 3 Zrotation Yrotation Xrotation
										End Site
										{
											OFFSET -0.63199 -0.00000 -0.00000
										}
									}
								}
								JOINT RThumb
								{
									OFFSET 0 0 0
									CHANNELS 3 Zrotation Yrotation Xrotation
									End Site
									{
										OFFSET -0.64164 -0.00000 0.64164
									}
								}
							}
						}
					}
				}
			}
		}
	}
}
MOTION
Frames: 7
Frame Time: .0083333
-0.7567 17.7882 -0.535 0 0 0 0 0 0 -21 0 0 0 0 0 0 0 0 0 0 0 0 0 0 21 0 0 0 0 0 0 0 0 0 0 0 0 0 0 0 0 0 0 0 0 0 0 -16 0 0 21 0 0 11 0 0 0 -8 0 0 0 0 0 0 0 0 0 0 0 0 0 0 0 0 0 0 0 0 8 0 0 0 0 0 0 0 0 0 0 0 0 0 0 0 0 0
-0.7567 17.7882 -0.5350 -176.5940 58.5669 -140.6220 0.0000 0.0000 0.0000 7.6287 -37.0625 -43.8791 0.6272 5.0676 14.1014 -0.0102 3.4261 -4.3534 1.6525 -8.1012 -23.0220 0.0000 0.0000 0.0000 9.9261 18.8476 -29.1987 -0.2968 -3.5028 9.6820 1.9753 -32.9541 -37.0592 -0.1735 -2.6829 7.3970 -2.8805 3.8563 17.8767 -1.5319 4.2977 -3.3675 -1.3638 2.1262 -13.9807 0.7471 7.1567 -6.3806 0.3440 11.3398 -17.9736 -0.3189 6.1919 -4.9096 -0.0000 0.0000 0.0000 -61.4255 -15.3206 57.5283 162.0600 -28.0802 -115.4791 -0.0000 0.0000 -37.8000 -17.6310 7.9937 -2.5306 -7.1250 0.0000 -0.0000 -35.6952 35.5733 9.9444 -0.0000 0.0000 0.0000 60.0409 10.6879 47.3967 -161.9378 28.2367 -115.4214 0.0000 -0.0000 -44.8552 30.0996 23.1486 12.8373 7.1250 -0.0000 -0.0000 33.7610 -5.9944 37.5503
-0.7531 17.7892 -0.5494 -176.7260 58.4967 -140.8490 0.0000 0.0000 0.0000 7.4303 -37.1541 -43.6659 0.6242 5.0557 14.0675 -0.0075 3.3475 -4.3812 1.6299 -8.0484 -22.8612 0.0000 0.0000 0.0000 9.9448 18.6818 -29.0231 -0.2934 -3.4830 9.6265 2.0126 -33.0445 -37.0296 -0.1680 -2.6408 7.2804 -2.8616 3.8382 17.7448 -1.5511 4.2819 -3.3390 -1.3796 2.1183 -13.8648 0.6746 7.1979 -6.5087 0.3829 11.3810 -17.7807 -0.2807 6.2129 -4.8191 -0.0000 -0.0000 0.0000 -63.1632 -15.6254 58.1344 161.9288 -28.2482 -115.4171 -0.0000 0.0000 -39.0604 -18.2076 8.0861 -2.6490 -7.1250 0.0000 -0.0000 -36.1248 35.5918 10.0967 -0.0000 -0.0000 0.0000 62.6901 11.5510 47.3251 -161.8779 28.3133 -115.3930 0.0000 -0.0000 -46.1096 31.9706 22.2301 13.2861 7.1250 -0.0000 -0.0000 34.6890 -6.3623 38.9182
-0.7489 17.7889 -0.5635 -176.8200 58.5165 -141.0220 0.0000 0.0000 0.0000 7.1911 -37.1561 -43.4678 0.6220 5.0471 14.0428 -0.0049 3.2418 -4.3645 1.6474 -8.0893 -22.9856 0.0000 0.0000 0.0000 9.9147 18.6161 -28.8418 -0.2901 -3.4638 9.5728 2.0177 -33.0672 -37.0449 -0.1680 -2.6405 7.2794 -2.7653 3.9496 17.6073 -1.7446 4.4349 -3.3623 -1.6861 2.1730 -13.7866 1.0378 7.0987 -6.3037 0.2614 11.2187 -17.8230 -0.3872 6.1115 -4.8408 0.0000 0.0000 0.0000 -64.7332 -15.9051 59.0463 161.8049 -28.4063 -115.3583 -0.0000 0.0000 -40.2281 -18.7722 7.9952 -2.7066 -7.1250 0.0000 -0.0000 -36.4676 35.4536 10.3918 0.0000 0.0000 0.0000 65.5821 11.7774 47.3129 -161.8456 28.3544 -115.3777 0.0000 -0.0000 -46.9070 33.8473 21.6221 13.8808 7.1250 -0.0000 -0.0000 35.5330 -6.3704 40.5040
-0.7443 17.7910 -0.5718 -176.8830 58.5143 -141.1630 0.0000 0.0000 0.0000 7.0050 -37.1599 -43.2798 0.6183 5.0324 14.0010 -0.0031 3.1945 -4.3961 1.6323 -8.0540 -22.8782 0.0000 0.0000 0.0000 9.9215 18.5773 -28.6894 -0.2897 -3.4614 9.5662 2.0041 -33.0680 -37.1198 -0.1746 -2.6919 7.4222 -2.9406 3.9173 17.5688 -1.6850 4.3620 -3.3091 -1.4939 2.1573 -13.7207 0.9390 7.1958 -6.4852 0.1712 11.3528 -17.8537 -0.3957 6.1951 -4.8188 -0.0000 -0.0000 0.0000 -66.4875 -15.8591 59.3944 161.7273 -28.5050 -115.3213 -0.0000 0.0000 -41.1807 -19.0901 7.9009 -2.7237 -7.1250 0.0000 -0.0000 -36.6409 35.3385 10.5949 -0.0000 -0.0000 0.0000 67.9158 12.5192 47.5096 -161.7040 28.5346 -115.3102 0.0000 -0.0000 -47.9123 35.3273 21.0556 14.2861 7.1250 -0.0000 -0.0000 36.1885 -6.3928 41.7813
-0.7458 17.7911 -0.5764 -177.2500 58.2804 -141.5160 0.0000 0.0000 0.0000 6.7488 -37.2145 -43.2624 0.6137 5.0139 13.9481 0.0029 2.8743 -4.2675 1.6323 -8.0541 -22.8785 0.0000 0.0000 0.0000 9.7070 18.6820 -28.5530 -0.2919 -3.4745 9.6027 1.8073 -32.9824 -37.9951 -0.2270 -3.0666 8.4643 -3.0603 3.7678 17.6706 -1.5956 4.1423 -3.2851 -1.2684 2.0695 -13.7683 0.7857 7.3314 -6.8301 0.0332 11.5204 -17.7566 -0.3973 6.3007 -4.7175 -0.0000 -0.0000 0.0000 -68.3493 -15.5965 59.5598 161.6145 -28.6480 -115.2674 -0.0000 0.0000 -42.0804 -19.5140 7.6924 -2.7159 -7.1250 0.0000 -0.0000 -36.8354 35.1138 10.9355 -0.0000 -0.0000 0.0000 70.0343 13.1200 47.7604 -161.5554 28.7228 -115.2390 0.0000 -0.0000 -48.8106 36.4852 20.5335 14.5423 7.1250 -0.0000 -0.0000 36.6984 -6.4374 42.7896
-0.7432 17.7897 -0.5873 -177.4950 58.2283 -141.7800 0.0000 0.0000 0.0000 6.4475 -37.2006 -43.1146 0.6064 4.9847 13.8648 0.0064 2.6594 -4.1725 1.6239 -8.0343 -22.8182 0.0000 0.0000 0.0000 9.5655 18.6521 -28.5373 -0.3015 -3.5307 9.7598 1.4648 -32.4554 -38.7975 -0.3067 -3.5604 9.8431 -3.1697 3.7701 17.7114 -1.5989 4.1183 -3.2976 -1.2076 2.0666 -13.8156 0.7592 7.3584 -6.9038 -0.1505 11.5407 -17.8111 -0.4517 6.3236 -4.7125 0.0000 -0.0000 0.0000 -70.1733 -15.2469 59.7735 161.5072 -28.7836 -115.2158 -0.0000 0.0000 -43.1429 -20.1502 7.8939 -2.8850 -7.1250 0.0000 -0.0000 -37.3382 35.2143 11.0406 0.0000 -0.0000 0.0000 72.0090 13.1405 47.7280 -161.4994 28.7934 -115.2121 0.0000 -0.0000 -49.5163 37.3940 20.0320 14.6728 7.1250 -0.0000 -0.0000 37.1037 -6.5249 43.5684
